<svg id="Capa_1" data-name="Capa 1" xmlns="http://www.w3.org/2000/svg" xmlns:xlink="http://www.w3.org/1999/xlink" viewBox="0 0 60 52.67"><defs><style>.cls-1{fill:url(#Degradado_sin_nombre_2);}.cls-2{fill:url(#Degradado_sin_nombre_9);}.cls-3{fill:#fff;opacity:0.3;}</style><linearGradient id="Degradado_sin_nombre_2" x1="30" y1="-28" x2="30" y2="19.17" gradientUnits="userSpaceOnUse"><stop offset="0" stop-color="#44abcc"/><stop offset="0.82" stop-color="#253750"/></linearGradient><linearGradient id="Degradado_sin_nombre_9" x1="30.23" y1="21.71" x2="30.23" y2="56.12" gradientUnits="userSpaceOnUse"><stop offset="0" stop-color="#44abcc"/><stop offset="0.82" stop-color="#48b5a2"/></linearGradient></defs><path class="cls-1" d="M11.7,20.34a1,1,0,0,1,1.83,0L17,27.93H26a1,1,0,0,1,.85.45l.87,1.32.83-1.3a1,1,0,0,1,.86-.47h1.75l4-11.23a1,1,0,0,1,2,.14l3.26,16.31L44,19.67a1,1,0,0,1,1.95-.05L49.27,30.2l2-3.27a1,1,0,0,1,.86-.48h7.54A23.26,23.26,0,0,0,57.27,12C54.22,6.29,49.11,2.72,44,2.67h-.13c-3.69,0-9,1.71-13.82,9.47C25.09,4.29,19.76,2.63,16.06,2.67,10.89,2.72,5.78,6.29,2.73,12a23.15,23.15,0,0,0-2.15,16H7.8Z" transform="translate(0 -2.67)"/><path class="cls-2" d="M49.82,33.13A1,1,0,0,1,48,32.9l-3-9.35L41.2,37.88a1,1,0,0,1-1,.75h0a1,1,0,0,1-1-.81l-3.39-17-3,8.43a1,1,0,0,1-1,.68H30L28.61,32.1a1,1,0,0,1-1.7,0L25.47,30H16.3a1,1,0,0,1-.92-.6l-2.83-6.23L9.33,29.41a1,1,0,0,1-.91.55H1.17a22.14,22.14,0,0,0,2.35,4.83c4.87,7.49,13.38,14.14,26,20.33l.44.22.45-.22c12.65-6.19,21.17-12.84,26-20.33a21.52,21.52,0,0,0,2.8-6.31H52.74Z" transform="translate(0 -2.67)"/><path class="cls-3" d="M29.56,55.12l.44.22.18-.09c-.39-.21-.78-.44-1.15-.68a43.28,43.28,0,0,1-9.56-9,61.85,61.85,0,0,1-8.21-11.82c-.33-.66-.65-1.34-.94-2s-.66-1.62-.94-2.45l-.05.11a1,1,0,0,1-.91.55H1.17a22.14,22.14,0,0,0,2.35,4.83C8.39,42.28,16.9,48.93,29.56,55.12Z" transform="translate(0 -2.67)"/><path class="cls-3" d="M.58,27.93H7.8l.77-1.5a21.47,21.47,0,0,1-.46-7C8.82,12.91,13,6.79,18.13,3l.18-.12a11.32,11.32,0,0,0-2.11-.19C11,2.73,5.82,6.33,2.74,12.06A23.67,23.67,0,0,0,0,21.85v0c0,.22,0,.44,0,.67A21.68,21.68,0,0,0,.58,27.93Z" transform="translate(0 -2.67)"/></svg>